<?xml version="1.0" standalone="no"?>
<!DOCTYPE svg PUBLIC "-//W3C//DTD SVG 20010904//EN"
 "http://www.w3.org/TR/2001/REC-SVG-20010904/DTD/svg10.dtd">
<svg version="1.0" xmlns="http://www.w3.org/2000/svg"
 width="1230.000000pt" height="1230.000000pt" viewBox="0 0 1230.000000 1230.000000"
 preserveAspectRatio="xMidYMid meet">
<metadata>
Created by potrace 1.14, written by Peter Selinger 2001-2017
</metadata>
<g transform="translate(0.000000,1230.000000) scale(0.100000,-0.100000)"
fill="#000000" stroke="none">
<path d="M3334 12275 c-42 -25 -61 -52 -69 -96 -8 -43 -8 -328 0 -444 7 -95
11 -161 20 -337 l6 -108 -26 -10 c-37 -14 -81 -12 -94 3 -11 14 -36 105 -46
167 -3 19 -7 46 -10 60 -11 62 -14 96 -30 315 -23 325 -36 406 -69 427 -19 13
-89 8 -136 -10 -57 -22 -75 -55 -61 -109 11 -41 20 -85 26 -118 1 -11 8 -40
15 -65 7 -25 13 -52 15 -60 2 -8 8 -35 15 -60 7 -25 14 -56 16 -68 3 -13 12
-49 20 -80 8 -32 17 -66 20 -77 5 -27 11 -49 28 -121 33 -133 41 -190 29 -197
-34 -21 -118 -11 -146 18 -17 16 -49 140 -63 235 -2 19 -7 42 -10 51 -2 10 -6
30 -9 45 -2 16 -6 43 -8 59 -8 45 -17 106 -22 145 -3 19 -7 46 -10 60 -3 14
-7 39 -9 55 -3 17 -8 46 -11 65 -4 19 -8 44 -10 55 -14 102 -58 166 -126 186
-35 11 -43 10 -66 -7 -26 -19 -55 -72 -32 -58 8 5 9 2 2 -10 -9 -16 -7 -41 12
-146 3 -19 10 -51 15 -70 5 -19 11 -46 13 -60 3 -14 10 -43 15 -65 6 -22 14
-55 17 -74 3 -19 8 -38 11 -43 3 -5 7 -19 9 -31 1 -12 7 -42 13 -67 18 -77 36
-186 35 -212 -2 -48 -2 -47 -31 -37 -106 37 -217 217 -282 459 -7 25 -14 52
-15 60 -2 8 -4 15 -5 15 -1 0 -3 9 -4 20 -2 11 -6 38 -10 60 -4 22 -9 56 -12
75 -8 49 -41 109 -77 139 -42 36 -66 52 -80 55 -7 2 -19 6 -27 9 -40 14 -67
15 -96 1 -67 -32 -68 -87 -8 -329 30 -122 75 -257 89 -267 5 -4 7 -8 3 -8 -7
0 23 -70 52 -120 8 -14 14 -27 15 -30 0 -9 88 -143 110 -168 55 -64 139 -144
180 -172 36 -25 155 -78 175 -78 9 0 104 -14 125 -19 11 -2 40 -6 65 -9 39 -4
94 -11 137 -18 7 -1 16 -5 20 -10 4 -4 8 -89 10 -189 4 -330 12 -671 18 -747
19 -269 31 -368 61 -520 3 -14 7 -38 10 -55 13 -68 76 -244 104 -288 95 -150
258 -259 410 -274 30 -3 60 -5 65 -4 58 5 101 11 160 21 39 7 84 13 100 15 17
2 30 4 30 5 0 1 9 3 20 4 35 5 98 16 150 26 28 5 68 12 90 15 22 3 65 10 95
15 30 5 72 12 94 16 21 3 48 8 60 10 11 3 35 7 51 9 17 2 48 6 70 10 39 6 44
3 150 -81 93 -74 143 -103 328 -195 l218 -107 102 -6 c56 -4 125 -8 152 -11
28 -2 84 -7 125 -10 41 -3 109 -8 150 -11 41 -2 102 -6 135 -9 33 -3 83 -6
110 -7 54 -1 44 8 179 -139 104 -113 95 -96 112 -199 3 -19 7 -44 9 -55 2 -11
6 -37 10 -59 4 -21 8 -50 10 -65 2 -14 4 -26 5 -26 1 0 3 -13 5 -30 2 -16 7
-48 10 -70 4 -22 8 -50 10 -62 2 -12 6 -34 9 -50 3 -15 8 -41 10 -58 5 -35 45
-288 52 -327 4 -31 7 -50 23 -153 6 -38 13 -88 17 -110 11 -69 13 -89 18 -130
3 -22 8 -53 11 -69 3 -15 8 -49 10 -75 2 -25 5 -46 6 -46 1 0 3 -9 4 -20 1
-11 6 -51 10 -90 11 -97 10 -212 -4 -260 -26 -97 -78 -113 -286 -90 -27 3 -70
7 -95 10 -82 8 -165 17 -195 22 -16 2 -50 6 -75 9 -55 6 -118 14 -145 18 -86
12 -133 19 -150 22 -11 3 -36 7 -55 10 -19 3 -42 7 -50 9 -8 3 -37 7 -64 10
-28 4 -53 8 -56 10 -4 2 -22 7 -41 10 -19 3 -42 8 -52 11 -11 3 -29 7 -40 9
-12 1 -60 12 -107 24 -47 13 -92 24 -100 27 -8 2 -48 12 -88 23 -88 24 -176
22 -307 -6 -16 -3 -37 -7 -45 -9 -25 -3 -92 -15 -109 -19 -55 -14 -108 -28
-121 -32 -8 -3 -20 -7 -25 -8 -6 -2 -35 -13 -65 -26 -149 -63 -238 -146 -306
-285 -41 -84 -92 -252 -108 -359 -4 -22 -8 -53 -11 -70 -5 -32 -20 -104 -29
-145 -4 -14 -9 -43 -11 -64 -3 -22 -10 -58 -15 -80 -14 -67 -31 -271 -43 -526
-2 -52 -4 -55 -27 -54 -24 0 -84 9 -126 18 -110 23 -210 30 -444 30 -376 0
-451 -17 -636 -141 -113 -76 -153 -116 -202 -203 -29 -54 -79 -205 -98 -300
-3 -14 -12 -59 -20 -100 -31 -152 -26 -211 25 -280 55 -74 117 -117 195 -135
59 -14 99 -10 136 12 30 17 70 72 70 94 0 9 3 19 7 23 4 3 8 12 9 19 1 7 16
62 34 122 18 61 34 117 35 125 2 8 4 16 5 18 2 1 3 5 5 10 1 4 4 14 7 22 3 8
16 44 28 80 25 73 62 151 93 193 15 22 22 26 28 15 13 -19 39 -107 45 -148 2
-19 8 -63 12 -97 9 -67 8 -396 -2 -529 -5 -72 -4 -83 14 -102 20 -21 74 -54
85 -51 3 0 19 -3 37 -6 42 -10 88 -12 88 -6 0 3 21 6 48 7 53 1 126 34 137 61
3 10 8 47 11 83 6 103 21 236 39 350 2 14 6 39 9 56 2 17 17 82 31 145 14 63
27 119 28 124 2 6 5 15 9 20 3 6 9 25 13 43 10 47 27 38 35 -20 1 -4 5 -22 10
-39 5 -18 12 -48 15 -68 3 -20 8 -48 10 -61 3 -14 7 -43 10 -65 6 -49 12 -89
19 -135 3 -19 8 -60 11 -90 3 -30 7 -72 10 -92 5 -42 12 -106 21 -188 3 -30 7
-70 9 -88 2 -18 7 -65 10 -105 4 -40 11 -83 17 -97 6 -14 16 -36 21 -50 22
-50 95 -156 144 -210 88 -96 167 -119 199 -58 24 46 25 59 29 402 2 177 7 456
10 621 8 341 1 317 102 355 61 23 121 26 146 8 16 -13 23 -52 32 -178 7 -96
15 -301 16 -418 1 -101 4 -116 23 -136 33 -36 68 -45 157 -41 140 5 242 56
258 128 5 20 6 38 4 41 -3 3 -7 36 -9 73 -1 37 -5 93 -8 123 -11 116 -18 218
-21 307 -2 89 -1 93 23 109 28 19 97 23 113 7 6 -6 12 -81 14 -189 2 -99 6
-190 9 -204 3 -14 8 -36 10 -50 31 -162 81 -255 186 -344 25 -21 82 -46 91
-40 5 3 9 1 9 -4 0 -13 60 -5 78 10 54 45 58 218 11 453 -11 55 -24 109 -29
120 -71 159 -92 252 -71 308 16 42 67 85 98 82 72 -6 159 -71 188 -141 7 -17
16 -83 19 -145 4 -63 9 -130 12 -149 6 -44 13 -116 21 -205 7 -84 40 -158 96
-216 50 -51 84 -51 109 1 14 30 16 62 13 210 -2 96 -6 202 -8 235 -21 265 -23
407 -13 652 7 192 25 242 107 297 30 20 61 36 69 36 9 0 20 4 25 9 30 26 143
28 159 2 3 -4 8 -46 11 -92 5 -76 9 -135 20 -269 6 -70 15 -162 19 -190 2 -14
7 -52 11 -85 3 -33 9 -73 11 -90 3 -16 7 -46 10 -65 2 -19 8 -57 14 -85 5 -27
12 -66 15 -85 4 -19 9 -48 11 -65 3 -16 7 -37 8 -45 44 -253 55 -625 22 -742
-10 -38 -23 -68 -27 -68 -5 0 -9 -7 -9 -15 0 -25 -75 -94 -121 -111 -51 -18
-88 -23 -224 -28 -55 -2 -113 -7 -130 -10 -60 -10 -121 -18 -175 -22 -30 -2
-82 -6 -115 -8 -33 -3 -105 -7 -160 -11 -55 -3 -120 -8 -145 -10 -25 -3 -65
-8 -90 -11 -117 -13 -264 -47 -308 -70 -15 -8 -31 -14 -36 -14 -18 0 -153 -74
-225 -123 -139 -96 -156 -108 -181 -130 -14 -12 -37 -32 -52 -43 -144 -112
-325 -283 -348 -329 -8 -17 -17 -32 -20 -35 -14 -13 -81 -166 -90 -203 -12
-55 -20 -173 -36 -522 -10 -206 -12 -1330 -3 -1435 8 -88 32 -141 94 -205 104
-106 210 -149 365 -149 121 1 144 4 224 35 135 50 236 130 280 222 33 67 40
166 37 487 -8 675 -5 848 14 990 2 14 6 48 10 75 3 28 9 58 11 67 3 10 7 30
10 45 25 145 84 277 154 344 46 45 158 106 209 116 14 2 28 6 33 9 4 3 16 7
25 9 10 3 34 9 53 14 169 44 431 95 545 106 27 3 66 7 85 10 130 16 270 28
470 42 128 8 982 9 1008 1 13 -5 22 -3 22 3 0 6 8 8 19 4 25 -8 159 -10 167
-3 3 4 19 2 36 -3 20 -5 36 -5 43 1 7 5 15 7 18 4 3 -3 138 -7 299 -8 288 -2
294 -2 343 -26 116 -56 227 -153 267 -235 24 -46 46 -121 52 -177 13 -99 16
-129 21 -173 5 -47 8 -71 20 -140 3 -16 7 -50 10 -75 3 -25 8 -52 10 -60 2 -8
7 -42 11 -75 3 -33 8 -67 9 -75 2 -9 6 -43 10 -75 4 -33 8 -71 10 -85 8 -48
21 -186 30 -305 5 -55 15 -391 18 -585 2 -103 6 -132 23 -165 38 -76 55 -100
119 -169 23 -25 101 -79 130 -90 80 -31 240 -42 300 -21 100 36 158 87 199
178 42 92 60 160 72 277 3 36 8 73 10 83 1 9 6 43 9 75 3 31 7 73 9 92 3 19 7
64 10 100 12 124 18 185 21 215 10 87 23 560 15 560 -1 0 -3 27 -5 60 -4 69
-13 158 -19 195 -3 14 -10 59 -16 100 -16 98 -15 95 -35 170 -20 81 -88 221
-160 330 -30 46 -55 85 -55 86 0 4 -300 303 -371 369 -103 97 -239 217 -304
267 -33 26 -68 54 -77 62 -10 9 -22 16 -27 16 -5 0 -14 6 -20 14 -14 17 -117
67 -182 89 -61 21 -116 29 -229 33 -52 1 -95 3 -95 4 0 1 -22 3 -48 5 -90 7
-161 31 -201 68 -11 9 -24 17 -28 17 -30 0 -211 189 -255 266 -38 67 -83 184
-89 229 -1 11 -3 20 -4 20 -6 0 -56 231 -74 340 -3 17 -7 41 -10 55 -3 14 -8
50 -11 80 -3 30 -7 65 -9 78 -3 12 -8 55 -11 95 -3 39 -8 88 -10 107 -2 19 -6
73 -9 120 -4 47 -9 103 -11 125 -3 22 -7 60 -10 85 -2 25 -7 56 -9 70 -2 14
-10 59 -16 100 -6 41 -16 89 -21 107 -17 53 -13 109 10 146 28 46 143 105 257
132 10 3 46 11 79 20 33 8 74 17 90 20 17 3 41 7 55 10 96 17 254 22 310 10
14 -3 41 -8 60 -11 117 -19 276 -122 396 -256 46 -51 137 -177 166 -228 28
-51 75 -172 82 -210 2 -14 12 -54 21 -90 9 -36 18 -72 20 -80 3 -20 -24 -50
-47 -50 -10 0 -18 -4 -18 -8 0 -12 -117 -39 -205 -47 -27 -2 -75 -7 -105 -10
-79 -8 -83 -8 -106 -7 -29 2 -115 81 -136 124 -10 18 -24 54 -33 79 -24 66
-52 93 -115 110 -90 24 -152 12 -212 -40 -40 -36 -42 -40 -42 -97 -1 -32 2
-79 6 -104 4 -25 11 -74 17 -110 11 -74 19 -123 26 -177 3 -21 9 -51 12 -68 3
-16 7 -43 8 -60 2 -16 5 -48 9 -70 6 -39 10 -60 21 -135 3 -19 7 -55 10 -80 2
-25 6 -61 9 -80 3 -19 7 -60 11 -90 11 -104 14 -119 33 -157 51 -98 138 -140
231 -112 27 8 61 50 76 97 13 37 15 67 10 147 -15 214 -4 268 57 298 39 19 63
12 108 -33 51 -51 61 -97 71 -300 2 -27 20 -94 37 -130 64 -140 235 -128 317
22 25 44 30 64 30 123 0 62 -6 120 -19 180 -29 133 -35 164 -39 190 -3 17 -8
49 -12 72 -11 60 0 92 36 107 52 22 122 7 197 -40 56 -36 68 -57 82 -139 18
-99 20 -129 26 -298 10 -263 8 -361 -5 -365 -6 -2 -11 -8 -11 -14 0 -6 -11
-23 -25 -40 -38 -44 -34 -94 10 -141 45 -48 93 -67 159 -64 68 4 114 37 146
104 34 72 40 107 40 238 0 113 -4 136 -44 285 -2 8 -11 35 -19 60 -37 110 -16
160 64 148 29 -4 55 -73 62 -166 3 -33 8 -66 12 -71 3 -6 1 -11 -5 -11 -6 0
-9 -4 -5 -9 3 -6 8 -28 10 -50 3 -23 7 -59 10 -82 8 -73 40 -128 84 -148 40
-17 101 -17 101 0 0 5 7 9 15 9 14 0 70 62 70 77 0 5 5 15 10 23 5 8 10 56 11
105 2 122 -30 269 -103 485 -33 96 -59 180 -57 185 1 6 5 22 8 37 5 21 14 29
40 33 60 12 104 -22 202 -151 81 -108 119 -186 159 -324 20 -69 39 -132 42
-140 4 -8 7 -19 7 -23 1 -4 12 -19 25 -33 44 -46 116 -25 165 50 25 37 27 49
25 121 -2 44 -9 103 -16 130 -8 28 -16 57 -18 66 -7 32 -58 124 -99 178 -63
83 -102 128 -197 222 -69 69 -104 95 -172 129 -113 56 -162 59 -289 19 -143
-45 -186 -51 -209 -28 -11 11 -19 25 -20 32 0 6 -2 19 -3 27 -4 20 -17 131
-31 270 -3 25 -7 81 -10 125 -2 44 -7 114 -10 155 -3 41 -8 113 -10 160 -5 93
-15 183 -21 189 -2 2 1 12 7 22 5 11 6 19 2 19 -4 0 -9 24 -11 53 -4 89 -39
162 -112 237 -36 36 -80 76 -97 88 -53 37 -164 88 -228 107 -70 20 -68 19
-240 50 -16 3 -41 7 -55 9 -14 3 -45 8 -70 11 -25 2 -56 7 -70 9 -14 3 -64 7
-112 11 -49 3 -96 8 -107 10 -96 18 -876 26 -1116 10 -71 -4 -156 -8 -187 -9
-32 -1 -58 -4 -58 -8 0 -4 -6 -5 -13 -2 -14 5 -14 10 -1 129 4 33 7 77 8 98 0
20 4 37 9 37 4 0 6 3 4 8 -3 4 -8 59 -11 122 -4 63 -8 129 -11 145 -7 51 -15
211 -20 420 -8 319 -18 509 -29 588 -15 94 -20 127 -30 182 -17 97 -51 171
-124 268 -42 56 -79 104 -82 107 -18 16 -110 141 -110 150 0 5 -4 10 -9 10 -5
0 -11 9 -14 20 -5 19 -2 20 27 16 18 -3 46 -10 62 -17 30 -11 56 -18 89 -24
11 -2 38 -7 60 -11 49 -9 175 -9 230 -1 22 4 74 16 115 28 41 11 80 22 85 23
6 1 35 11 65 21 30 11 57 20 60 20 3 1 14 5 25 9 11 4 43 16 70 26 74 27 210
78 295 111 64 26 83 29 134 24 33 -4 63 -8 66 -10 3 -2 34 -6 70 -10 35 -3 67
-8 70 -10 3 -1 32 -6 65 -9 33 -4 69 -9 80 -11 21 -5 60 -10 140 -20 28 -4 61
-8 74 -10 13 -2 45 -7 70 -10 25 -4 62 -9 81 -12 19 -2 46 -6 60 -8 53 -6 123
-15 232 -30 122 -17 156 -21 233 -30 28 -4 61 -8 75 -10 32 -5 118 -17 147
-20 31 -3 156 125 267 275 129 172 152 286 150 740 -1 233 -4 311 -19 440 -3
25 -7 68 -9 95 -3 43 -10 96 -31 255 -29 211 -19 270 54 313 38 22 53 25 156
32 44 3 94 9 112 14 17 5 34 7 37 3 3 -3 6 1 6 8 0 7 3 11 6 7 10 -9 60 19 89
51 27 28 78 108 81 127 1 5 9 30 17 55 19 56 57 195 63 226 2 13 6 36 9 52 3
15 8 59 11 97 9 105 11 126 19 177 9 61 -6 106 -53 150 -48 46 -91 66 -132 61
-74 -8 -95 -55 -106 -235 -3 -51 -7 -109 -9 -128 -2 -19 -6 -71 -10 -115 -12
-156 -30 -232 -56 -240 -26 -8 -42 6 -61 52 -23 54 -48 142 -48 165 0 11 -4
27 -9 36 -5 9 -11 31 -14 47 -3 17 -13 55 -22 85 -9 30 -18 64 -20 75 -3 11
-12 54 -22 95 -9 41 -16 78 -15 82 3 13 -63 71 -103 89 -70 32 -141 18 -151
-30 -3 -14 -7 -30 -8 -36 -4 -15 17 -87 59 -200 36 -97 55 -157 57 -172 0 -5
9 -29 19 -55 10 -27 17 -48 15 -48 -2 0 1 -21 8 -47 23 -91 -12 -169 -81 -177
-36 -5 -80 15 -102 46 -27 38 -49 111 -39 131 5 9 5 17 1 17 -5 0 -9 19 -9 43
-1 23 -4 80 -9 127 -4 47 -9 99 -10 115 -9 107 -28 255 -36 282 -26 82 -168
93 -247 20 -23 -20 -24 -27 -18 -97 3 -41 8 -86 11 -100 2 -14 7 -50 9 -80 3
-30 6 -55 6 -55 4 0 20 -123 25 -205 13 -177 4 -219 -52 -245 -137 -65 -227
-1 -259 183 -2 12 -6 34 -9 50 -3 15 -7 47 -10 72 -3 25 -8 52 -10 60 -3 8 -7
35 -10 60 -3 25 -7 54 -9 65 -2 11 -7 45 -10 75 -4 30 -9 71 -12 90 -2 19 -6
51 -8 70 -10 78 -44 124 -100 134 -70 13 -157 -47 -193 -133 -14 -32 -13 -144
0 -181 4 -8 8 -28 11 -45 10 -56 26 -126 30 -133 2 -4 7 -29 10 -56 4 -27 9
-53 11 -56 2 -4 7 -40 11 -81 3 -41 8 -75 9 -77 2 -2 -4 -23 -12 -48 -13 -39
-18 -44 -46 -44 -52 0 -107 68 -145 181 -17 52 -45 135 -62 184 -49 140 -71
244 -84 385 -7 79 -57 138 -122 144 -64 6 -125 -43 -144 -115 -11 -39 -7 -200
5 -259 3 -14 8 -40 11 -59 14 -86 22 -114 67 -246 53 -158 98 -242 172 -326
99 -111 259 -182 435 -193 86 -6 190 -32 190 -47 0 -5 6 -9 14 -9 19 0 98 -78
128 -125 34 -56 54 -109 73 -201 16 -75 19 -154 26 -619 1 -100 -10 -165 -38
-218 -20 -39 -80 -96 -109 -103 -13 -3 -24 -9 -24 -13 0 -4 -6 -8 -12 -8 -7
-1 -34 -5 -60 -11 -69 -14 -186 -7 -238 14 -93 37 -199 149 -231 245 -7 19
-15 39 -19 44 -4 6 -10 19 -13 30 -3 11 -14 52 -26 90 -11 39 -22 81 -25 95
-3 14 -8 36 -11 50 -10 40 -14 62 -19 110 -8 66 -34 221 -51 303 -41 204 -178
452 -326 593 -87 81 -216 181 -259 201 -8 4 -17 10 -20 15 -12 16 -299 155
-395 190 -86 32 -277 89 -340 103 -11 2 -31 6 -45 10 -79 17 -213 40 -295 49
-126 15 -155 18 -225 22 -178 11 -586 5 -665 -10 -11 -2 -47 -7 -80 -11 -32
-4 -66 -8 -75 -10 -8 -1 -35 -6 -60 -11 -25 -5 -49 -9 -55 -10 -5 -1 -12 -3
-15 -4 -7 -2 -29 -7 -69 -15 -19 -3 -37 -8 -41 -10 -3 -2 -17 -6 -31 -9 -51
-9 -198 -60 -294 -101 -226 -97 -378 -198 -530 -350 -63 -62 -165 -186 -165
-198 0 -3 -16 -33 -35 -66 -19 -34 -34 -62 -34 -64 0 -1 -5 -15 -11 -32 -23
-58 -37 -151 -35 -225 4 -104 7 -124 71 -415 2 -11 7 -33 10 -49 2 -16 7 -32
9 -36 4 -7 18 -146 17 -173 -2 -36 -54 -132 -90 -165 -88 -81 -178 -75 -269
18 -75 76 -98 145 -108 325 -9 154 -13 208 -19 265 -3 30 -8 80 -11 110 -9
111 -16 176 -20 205 -5 41 -13 108 -20 180 -4 33 -8 74 -10 90 -13 94 -19 174
-16 202 1 12 57 34 88 35 10 0 61 -3 113 -7 75 -5 103 -3 132 9 39 17 108 83
108 104 0 6 3 12 8 12 7 0 16 18 44 90 26 64 16 145 -40 315 -20 61 -37 113
-38 118 -1 4 -3 9 -4 12 -1 3 -3 8 -5 13 -1 4 -5 16 -9 27 -4 11 -12 31 -16
45 -40 121 -62 168 -86 179 -57 25 -107 5 -129 -53 -18 -48 -15 -80 14 -161
51 -136 58 -182 41 -246 -18 -67 -106 -186 -167 -226 -24 -16 -26 -16 -40 2
-11 16 -13 46 -8 145 3 69 8 141 10 160 3 19 8 64 11 100 3 36 8 76 9 90 30
254 32 376 10 424 -31 66 -119 85 -191 41z m2513 -897 c12 7 125 6 259 -2 137
-9 349 -46 579 -101 33 -7 89 -21 125 -29 68 -16 260 -71 295 -84 75 -30 226
-111 278 -150 91 -69 250 -229 297 -302 8 -12 25 -35 38 -50 12 -15 22 -30 22
-33 0 -4 12 -23 26 -44 23 -34 86 -150 89 -163 1 -3 11 -26 23 -51 30 -65 34
-87 46 -279 11 -162 17 -223 22 -231 2 -4 0 -10 -6 -14 -6 -4 -7 -11 -4 -17 4
-5 8 -24 9 -41 9 -83 15 -134 19 -153 2 -12 7 -38 10 -59 3 -20 11 -45 16 -56
6 -10 8 -19 5 -19 -3 0 3 -17 14 -37 24 -47 63 -83 121 -110 49 -24 150 -55
150 -47 0 3 6 2 13 -3 6 -4 23 -9 37 -10 14 -1 58 -8 99 -16 101 -21 277 -15
416 13 61 12 115 23 121 24 24 4 65 39 88 74 60 95 64 210 31 832 -17 328 -17
336 -2 352 12 12 53 17 65 8 1 -2 5 -3 10 -5 41 -11 118 -80 120 -107 1 -20
11 -127 17 -178 6 -67 16 -200 30 -400 11 -175 12 -498 1 -551 -19 -89 -30
-101 -136 -148 -25 -11 -54 -29 -64 -40 -59 -65 -188 -126 -308 -145 -98 -16
-311 -11 -413 11 -11 2 -33 6 -50 8 -16 3 -45 9 -64 14 -18 6 -36 10 -40 9 -3
-1 -26 4 -51 11 -25 7 -52 14 -60 16 -34 7 -148 49 -195 73 -103 51 -127 79
-140 162 -4 25 -7 50 -7 55 4 34 7 277 4 280 -2 2 -6 36 -8 77 -5 82 -7 102
-24 173 -6 28 -13 57 -15 65 -20 99 -193 519 -217 528 -4 2 -8 8 -8 13 0 12
-86 143 -104 158 -9 8 -16 18 -16 23 0 5 -35 44 -78 86 -81 79 -176 148 -272
197 -30 15 -66 33 -80 40 -23 12 -72 31 -185 70 -60 21 -210 56 -305 71 -19 3
-46 7 -60 10 -22 3 -59 8 -155 20 -138 17 -585 23 -745 11 -84 -6 -246 -32
-285 -44 -11 -4 -27 -7 -35 -8 -26 -3 -162 -47 -189 -61 -14 -8 -31 -14 -37
-14 -17 0 -144 -72 -215 -121 -93 -65 -176 -141 -251 -230 -54 -62 -52 -60
-74 -99 -10 -19 -22 -37 -25 -40 -15 -12 -61 -128 -75 -189 -14 -60 -14 -183
0 -256 2 -11 7 -42 10 -69 4 -27 9 -52 11 -55 1 -3 6 -22 9 -41 3 -19 10 -51
15 -70 6 -19 15 -53 21 -75 6 -22 13 -48 15 -58 2 -10 7 -27 10 -37 3 -10 8
-27 10 -37 2 -10 13 -51 23 -92 23 -89 21 -162 -5 -189 -23 -24 -98 -62 -121
-62 -10 0 -22 -4 -27 -8 -17 -14 -74 -30 -165 -47 -14 -3 -36 -7 -50 -10 -59
-13 -77 -16 -109 -21 -53 -7 -224 -37 -306 -53 -85 -16 -162 2 -230 53 -34 26
-83 109 -90 152 -2 16 -13 70 -25 119 -11 50 -22 101 -25 115 -3 14 -7 35 -9
47 -3 11 -8 43 -12 70 -3 26 -9 57 -11 68 -2 11 -6 31 -8 45 -13 97 -16 120
-21 160 -3 25 -7 56 -9 69 -3 14 -7 50 -10 80 -3 31 -8 79 -10 106 -3 28 -7
75 -10 105 -30 404 -28 460 21 460 35 0 53 -44 59 -147 12 -212 30 -392 51
-527 3 -16 7 -50 9 -75 2 -25 5 -46 6 -46 2 0 4 -16 12 -80 26 -196 37 -255
54 -288 26 -52 119 -133 190 -167 38 -17 75 -36 84 -40 9 -5 36 -14 59 -20
107 -29 214 -7 435 88 138 59 167 165 99 362 -66 193 -82 275 -78 402 2 62 5
120 7 128 2 8 9 42 16 75 36 165 195 381 371 505 19 14 37 28 40 31 9 12 139
88 207 122 81 41 209 88 315 117 112 31 141 36 313 60 118 16 142 19 235 25
47 4 87 9 89 11 2 2 9 0 15 -6 7 -5 17 -6 23 -2z m308 -462 c28 -4 64 -8 80
-10 65 -7 248 -44 303 -61 7 -3 13 -4 15 -5 8 0 175 -63 198 -76 16 -8 29 -12
29 -10 0 4 55 -25 183 -96 12 -7 24 -16 27 -19 3 -3 28 -21 55 -39 71 -48 186
-168 244 -253 51 -76 125 -223 137 -272 4 -17 9 -34 13 -40 3 -5 6 -12 6 -15
1 -3 6 -27 13 -55 30 -126 39 -199 40 -313 0 -90 -5 -145 -22 -217 -27 -116
-97 -227 -188 -298 -54 -42 -204 -124 -212 -116 -6 6 26 92 69 183 95 204 117
288 117 435 0 204 -29 309 -124 464 -26 43 -48 83 -48 88 0 5 -4 9 -8 9 -4 0
-15 12 -24 28 -31 51 -53 76 -140 164 -96 95 -90 91 -244 166 -60 29 -117 57
-126 62 -25 14 -166 48 -224 55 -28 3 -61 8 -75 10 -13 3 -79 7 -147 10 -67 2
-126 6 -130 7 -19 9 -462 -12 -482 -22 -3 -2 -9 -4 -15 -5 -60 -11 -97 -21
-135 -37 -75 -32 -93 -41 -148 -75 -29 -18 -55 -33 -58 -33 -6 0 -18 -10 -90
-77 -50 -47 -120 -133 -108 -133 5 0 3 -4 -4 -8 -15 -10 -51 -110 -58 -161
-29 -199 40 -362 246 -585 25 -27 50 -54 55 -60 16 -16 56 -106 62 -136 2 -14
7 -41 12 -60 4 -19 6 -75 5 -125 -2 -139 3 -127 -46 -109 -118 44 -147 72
-210 204 -27 58 -59 125 -71 150 -14 28 -69 91 -149 170 -159 157 -180 196
-180 340 0 75 4 101 24 175 5 22 11 47 13 55 5 24 37 103 53 127 7 12 14 26
14 30 1 31 92 172 163 250 58 65 228 179 295 198 3 1 23 9 45 19 44 19 176 62
215 70 14 3 54 12 90 20 70 15 117 22 220 32 36 3 66 7 67 8 5 4 315 -3 358
-8z m30 -435 c0 -1 45 -4 101 -6 164 -6 316 -58 464 -158 128 -87 211 -237
245 -442 4 -22 9 -51 11 -65 9 -56 12 -308 4 -355 -5 -27 -11 -66 -15 -85 -8
-46 -35 -161 -42 -180 -3 -8 -8 -23 -9 -33 -4 -17 -43 -129 -62 -177 -18 -46
-98 -113 -149 -125 -10 -3 -38 -9 -61 -15 -51 -12 -118 -6 -170 16 -20 8 -38
15 -40 14 -1 0 -55 26 -120 59 -139 69 -176 78 -241 56 -26 -8 -59 -18 -72
-22 -31 -8 -177 -7 -206 1 -13 3 -31 8 -40 10 -152 35 -301 123 -357 211 -20
31 -25 117 -16 260 4 60 -15 155 -31 155 -5 0 -9 6 -9 13 0 8 -35 51 -77 97
-142 152 -151 163 -177 216 -14 29 -28 74 -31 101 -3 26 -8 55 -11 65 -3 9 0
19 5 22 6 4 8 12 5 20 -3 7 0 33 6 57 6 24 12 51 14 59 9 37 46 87 82 112 21
14 41 26 44 25 3 0 25 6 50 13 53 16 46 14 135 33 11 3 40 8 65 12 25 4 52 9
60 10 36 7 118 17 153 20 21 2 40 5 42 7 4 4 450 3 450 -1z m-1105 -3996 c53
-7 236 -33 265 -39 11 -2 40 -7 65 -11 25 -4 54 -9 65 -12 11 -2 34 -6 50 -8
17 -3 37 -7 45 -8 8 -2 38 -7 65 -11 72 -11 77 -12 105 -19 14 -3 43 -9 65
-11 22 -3 51 -8 65 -10 14 -2 52 -7 85 -11 32 -4 62 -8 66 -10 3 -2 44 -6 90
-9 46 -3 84 -6 84 -6 0 -1 39 -2 88 -4 93 -4 120 -15 168 -67 26 -29 33 -42
65 -112 17 -39 21 -61 29 -168 2 -37 7 -86 9 -110 3 -24 7 -80 11 -124 3 -44
9 -98 12 -120 2 -22 5 -66 6 -97 1 -32 4 -58 7 -58 3 0 5 -17 6 -38 0 -20 4
-66 8 -102 11 -95 14 -119 20 -185 12 -131 16 -164 20 -191 3 -16 8 -60 11
-99 7 -75 14 -139 20 -195 3 -19 7 -60 10 -90 3 -30 7 -73 10 -95 2 -22 7 -69
11 -105 3 -36 8 -78 10 -95 1 -16 6 -61 9 -100 4 -38 8 -83 10 -100 1 -16 6
-68 10 -115 4 -47 9 -101 11 -120 4 -40 14 -175 19 -270 2 -36 4 -65 5 -65 1
0 3 -55 6 -122 8 -180 -26 -288 -121 -388 -81 -86 -89 -87 -460 -100 -365 -12
-565 -24 -675 -40 -19 -3 -51 -7 -70 -10 -19 -3 -48 -7 -65 -10 -16 -2 -41 -7
-55 -10 -14 -3 -40 -8 -58 -11 -139 -23 -540 -190 -609 -253 -26 -24 -101
-114 -131 -156 -22 -32 -86 -185 -77 -185 2 0 0 -12 -6 -28 -6 -15 -13 -94
-15 -177 -2 -82 -4 -150 -4 -150 0 0 -2 -308 -4 -685 -3 -377 -9 -701 -14
-720 -20 -79 -72 -143 -126 -159 -72 -19 -147 7 -199 71 -52 65 -55 85 -51
397 7 571 19 989 38 1251 3 36 14 96 26 134 12 38 23 77 25 86 2 9 17 59 35
111 23 71 39 102 65 125 38 36 203 175 256 216 74 58 129 98 135 98 3 0 24 13
47 29 80 55 310 165 321 153 3 -3 6 0 6 6 0 7 6 12 14 12 8 0 27 5 43 12 15 6
33 12 38 13 6 0 17 4 25 7 14 6 53 15 75 19 6 0 17 5 25 9 8 4 35 11 60 14 25
3 56 8 70 11 42 9 180 22 305 30 178 11 288 21 350 32 17 2 41 6 55 8 101 14
177 33 218 54 54 28 119 97 155 166 l32 60 -1 170 c-1 150 -6 287 -19 490 -2
33 -6 110 -10 170 -5 109 -9 162 -20 280 -3 33 -8 87 -10 120 -3 33 -7 80 -9
105 -3 25 -8 79 -11 120 -6 75 -10 122 -21 215 -3 28 -8 66 -9 85 -3 33 -8 74
-21 195 -3 28 -7 61 -9 75 -3 25 -13 99 -20 155 -2 17 -6 59 -10 95 -4 36 -8
75 -11 88 -2 12 -6 34 -9 50 -21 113 -68 215 -121 262 -30 26 -82 47 -139 57
-86 14 -166 25 -200 28 -22 2 -69 6 -105 9 -130 11 -349 26 -475 31 -293 12
-353 23 -404 74 -74 74 -40 169 70 199 33 9 88 8 179 -3z m-560 -284 c53 -42
65 -74 65 -171 0 -93 -6 -107 -98 -233 -42 -58 -42 -59 -41 -145 0 -76 5 -99
37 -181 68 -173 101 -216 185 -245 45 -15 80 -13 121 9 44 22 64 67 61 134 -7
160 -1 240 24 339 19 70 43 128 65 155 8 9 11 17 8 17 -4 0 3 12 16 27 91 109
179 165 261 165 113 0 494 -18 561 -27 103 -13 122 -18 156 -37 35 -19 69 -69
77 -111 6 -35 5 -140 -1 -164 -13 -52 -65 -93 -121 -99 -12 -1 -79 -3 -149 -4
-117 -2 -136 -5 -220 -35 -161 -58 -171 -63 -246 -133 -39 -37 -41 -51 -28
-190 4 -43 1 -61 -16 -90 -36 -62 -78 -101 -142 -133 -88 -43 -146 -41 -290
10 -162 58 -233 69 -272 44 -13 -9 -23 -12 -23 -7 0 5 -8 -3 -17 -16 -26 -37
-55 -70 -85 -98 -15 -13 -34 -41 -42 -62 -26 -64 -49 -79 -117 -75 -77 5 -143
35 -168 76 -24 39 -21 75 15 198 9 31 18 63 19 71 2 8 4 15 5 15 2 0 23 87 48
205 35 163 42 281 28 494 -4 67 -1 96 10 117 8 16 14 31 14 34 -1 18 39 77 81
116 77 73 152 83 219 30z m3345 14 c28 -4 59 -9 70 -11 11 -3 36 -7 55 -10 19
-3 38 -8 41 -10 3 -2 19 -5 35 -8 47 -9 190 -53 239 -75 25 -11 45 -18 45 -16
0 10 209 -102 270 -144 105 -72 170 -135 245 -236 17 -22 33 -41 38 -43 4 -2
7 -7 7 -12 0 -4 15 -34 33 -67 56 -100 90 -204 112 -348 8 -53 17 -165 19
-234 2 -37 5 -72 7 -77 6 -10 5 -19 -5 -98 -6 -53 -29 -96 -49 -96 -26 0 -71
62 -81 111 -3 13 -7 35 -10 48 -3 14 -8 50 -10 80 -3 31 -8 72 -10 91 -3 19
-8 51 -10 70 -16 123 -74 317 -129 430 -75 154 -309 317 -508 353 -83 16 -128
23 -224 34 -113 13 -430 7 -580 -12 -16 -2 -54 -6 -84 -9 -203 -23 -278 -65
-341 -192 -15 -32 -18 -54 -14 -124 4 -87 9 -142 19 -217 3 -24 7 -62 10 -85
3 -24 8 -68 11 -98 2 -30 6 -71 9 -90 11 -92 14 -119 19 -175 8 -84 20 -187
31 -275 6 -48 17 -141 20 -165 4 -39 18 -140 22 -160 5 -25 14 -82 18 -115 2
-14 4 -25 5 -25 1 0 3 -13 5 -30 3 -30 8 -59 25 -150 5 -27 11 -59 13 -70 2
-11 6 -27 9 -35 3 -8 16 -44 28 -80 44 -129 131 -271 227 -373 51 -54 114
-111 133 -120 8 -4 29 -16 45 -27 53 -34 65 -41 65 -35 0 3 14 -2 32 -11 73
-38 265 -82 336 -78 209 14 263 13 320 -7 168 -57 286 -134 436 -284 116 -116
286 -332 286 -364 0 -6 5 -11 10 -11 6 0 10 -7 10 -15 0 -8 5 -15 10 -15 6 0
10 -6 10 -14 0 -7 7 -19 15 -26 9 -7 13 -15 11 -17 -2 -3 8 -26 23 -52 15 -26
37 -76 49 -111 24 -72 32 -114 47 -240 4 -30 8 -67 11 -81 4 -28 12 -129 21
-274 13 -210 3 -1080 -12 -1106 -4 -5 -1 -9 5 -9 6 0 8 -5 5 -10 -4 -6 -8 -25
-11 -43 -6 -55 -16 -91 -26 -104 -6 -7 -7 -13 -2 -13 5 0 0 -7 -10 -15 -11 -8
-16 -15 -11 -15 14 0 -49 -50 -65 -51 -46 -5 -88 5 -116 26 -35 26 -71 95 -80
153 -10 56 -12 414 -2 440 4 12 4 22 0 22 -4 0 -6 17 -4 38 2 20 4 206 4 412
1 443 -3 507 -48 775 -9 55 -57 240 -71 272 -7 18 -13 35 -13 38 0 12 -56 104
-91 151 -39 53 -138 144 -157 144 -6 0 -12 3 -14 8 -12 27 -367 170 -389 156
-5 -3 -9 -1 -9 5 0 5 -8 9 -17 9 -10 0 -36 2 -59 6 -77 12 -129 16 -284 21
-323 9 -437 28 -576 95 -98 47 -215 156 -258 237 -24 47 -34 106 -41 238 -12
204 -12 218 -19 295 -3 41 -9 107 -11 145 -3 39 -8 99 -11 135 -3 36 -7 92
-10 125 -3 33 -7 83 -8 110 -2 28 -7 82 -10 120 -3 39 -8 99 -11 135 -3 36 -8
92 -11 125 -4 33 -8 83 -10 110 -1 28 -5 86 -8 130 -13 188 -16 235 -22 325
-9 161 -13 257 -19 471 l-5 205 26 40 c50 78 142 120 304 140 19 2 69 9 110
15 88 14 128 18 193 23 26 2 49 5 52 7 7 7 266 3 320 -6z"/>
<path d="M5305 10311 c-73 -32 -102 -130 -59 -196 40 -60 202 -102 270 -70 59
28 79 127 37 182 -45 62 -189 110 -248 84z"/>
<path d="M6405 10241 c-60 -37 -29 -142 56 -190 93 -52 244 -26 235 41 -8 55
-57 133 -98 154 -36 19 -158 16 -193 -5z"/>
<path d="M6028 9616 c-25 -13 -65 -36 -89 -52 -24 -16 -47 -28 -51 -29 -11 0
-49 -54 -50 -72 -5 -62 89 -161 171 -182 50 -13 162 -16 211 -6 69 13 87 19
115 33 72 37 87 85 47 155 -23 41 -38 56 -102 98 -124 82 -180 94 -252 55z"/>
<path d="M3491 8819 c-47 -14 -133 -71 -176 -116 -20 -21 -48 -63 -62 -93 -22
-47 -26 -69 -27 -150 0 -53 6 -112 13 -133 7 -21 14 -46 16 -55 2 -9 4 -18 5
-19 2 -2 3 -6 4 -10 1 -5 6 -21 13 -38 80 -205 111 -289 118 -324 2 -9 16 -61
31 -116 14 -55 27 -107 28 -115 0 -8 3 -17 6 -20 3 -3 12 -30 19 -60 19 -80
110 -352 123 -367 6 -7 8 -13 4 -13 -3 0 7 -21 23 -47 16 -27 37 -75 46 -108
28 -102 35 -113 80 -135 53 -26 90 -29 355 -35 118 -2 233 -7 255 -9 22 -3 74
-7 117 -8 43 -2 78 -5 78 -8 0 -3 26 -6 58 -6 144 -3 218 -8 229 -16 6 -5 14
-5 17 1 4 5 16 8 29 6 12 -2 54 -6 92 -9 68 -6 100 -9 195 -22 50 -6 81 -10
185 -18 39 -4 88 -9 110 -11 49 -7 237 -7 285 0 37 5 102 15 134 21 142 26
285 120 353 229 69 111 98 340 67 523 -8 41 -11 79 -8 83 3 5 1 9 -3 9 -5 0
-9 9 -10 21 -2 18 -25 98 -40 139 -3 8 -7 20 -8 27 -6 26 -80 190 -97 215 -10
14 -18 29 -18 32 0 3 -14 27 -32 53 -48 72 -193 212 -278 268 -41 28 -77 52
-80 55 -3 3 -16 11 -29 18 -13 8 -40 23 -60 34 -44 26 -174 92 -181 93 -3 0
-27 11 -54 23 -27 12 -70 29 -95 37 -25 9 -53 18 -61 22 -18 8 -17 7 -60 17
-19 5 -41 13 -47 18 -7 6 -13 8 -13 5 0 -3 -24 1 -52 9 -63 18 -72 20 -168 38
-95 19 -146 27 -190 32 -19 2 -57 6 -85 11 -90 13 -316 6 -410 -13 -84 -18
-276 -24 -350 -11 -22 3 -79 17 -128 30 -94 26 -209 32 -266 16z m894 -289
c80 -34 130 -105 140 -200 2 -14 6 -53 9 -86 6 -63 17 -105 80 -324 20 -69 40
-147 43 -175 14 -95 7 -362 -12 -466 -3 -13 -7 -41 -9 -61 -7 -51 -30 -93 -67
-120 -17 -13 -32 -22 -35 -21 -2 1 -22 -4 -45 -12 -34 -12 -156 -25 -259 -28
-20 -1 -141 13 -160 18 -32 8 -103 49 -124 71 -40 41 -73 118 -86 199 -20 117
-39 181 -75 249 -19 36 -32 66 -29 66 4 0 2 6 -4 13 -13 15 -48 130 -56 183
-4 21 -8 46 -11 54 -2 8 -6 33 -10 55 -3 22 -8 54 -10 70 -3 17 -7 43 -10 59
-2 16 -16 75 -30 131 -29 115 -36 180 -25 211 13 33 72 55 163 60 104 5 119 9
169 42 35 23 56 28 127 32 167 10 272 3 326 -20z m907 -158 c14 -6 53 -30 86
-54 33 -24 100 -69 149 -100 116 -74 202 -153 258 -239 44 -67 92 -162 113
-224 6 -16 13 -39 17 -50 4 -11 9 -29 10 -40 4 -22 31 -176 40 -216 2 -14 14
-54 25 -88 43 -135 33 -226 -29 -272 -57 -42 -110 -49 -311 -43 -102 3 -237 7
-300 9 -301 8 -321 20 -325 207 -2 60 -5 112 -8 114 -3 3 -2 18 3 32 4 15 4
37 -1 49 -4 12 -5 24 -1 27 9 5 8 356 -2 466 -9 97 -11 117 -21 180 -11 67
-13 170 -3 176 5 3 6 9 3 13 -9 16 43 57 76 59 18 1 34 4 36 6 8 7 161 -2 185
-12z"/>
<path d="M7480 8665 c-72 -16 -453 -146 -461 -158 -3 -5 -9 -8 -13 -8 -3 1
-19 -5 -34 -13 -61 -32 -90 -94 -86 -181 3 -68 14 -195 19 -218 2 -12 6 -40 9
-62 3 -22 10 -67 16 -100 24 -144 31 -314 16 -415 -33 -213 -39 -344 -20 -432
6 -32 9 -58 7 -58 -3 0 -1 -6 4 -12 6 -7 20 -44 33 -83 50 -156 139 -279 243
-337 52 -29 176 -75 227 -83 19 -3 42 -8 50 -10 55 -15 169 -23 430 -31 276
-8 280 -8 280 -18 0 -4 6 -3 13 3 8 6 16 8 19 6 22 -22 490 -40 564 -22 12 3
45 9 75 12 30 4 63 9 74 10 87 12 153 91 190 226 41 151 88 341 116 470 17 79
32 153 35 164 2 11 7 33 10 49 2 16 7 32 9 36 2 3 6 17 9 31 9 46 14 64 40
159 15 52 30 102 33 110 9 23 11 29 32 120 19 84 27 126 36 205 7 59 12 94 31
202 25 141 21 176 -30 231 -46 51 -71 55 -471 67 -383 13 -615 26 -685 40 -14
3 -47 7 -75 9 -52 4 -87 9 -190 27 -33 6 -73 13 -90 15 -16 3 -41 6 -55 8 -14
2 -77 14 -140 26 -142 27 -199 30 -270 15z m299 -289 c17 -15 45 -78 44 -96 0
-3 3 -15 8 -27 39 -104 36 -618 -7 -938 -12 -85 -12 -90 -14 -90 -1 0 -3 -11
-6 -25 -25 -140 -116 -344 -175 -392 -48 -39 -63 -39 -176 1 -32 11 -90 29
-130 40 -48 14 -82 31 -102 51 -28 28 -30 35 -26 88 3 31 7 66 9 77 2 11 7 49
11 85 3 36 8 77 11 92 17 108 22 596 9 783 -17 223 -2 294 65 327 42 20 83 27
214 33 55 3 101 7 103 9 2 1 35 2 73 1 51 -1 75 -6 89 -19z m562 -56 c30 -5
68 -12 84 -15 17 -3 46 -8 65 -11 19 -2 46 -7 60 -9 55 -10 120 -16 205 -20
108 -5 152 -11 225 -31 30 -8 62 -17 70 -19 8 -2 16 -4 18 -4 1 -1 5 -1 8 0 3
1 19 -11 34 -26 28 -27 29 -31 26 -109 -4 -84 -9 -126 -27 -205 -14 -61 -20
-92 -22 -113 -1 -10 -5 -18 -10 -18 -4 0 -6 -4 -2 -9 3 -5 0 -31 -6 -58 -6
-26 -13 -61 -16 -78 -2 -16 -11 -58 -19 -93 -7 -34 -16 -77 -19 -95 -3 -17
-18 -77 -32 -132 -14 -55 -27 -107 -28 -115 -2 -8 -4 -16 -4 -17 -1 -2 -1 -5
-1 -8 -1 -12 -63 -175 -85 -223 -14 -29 -24 -56 -24 -60 8 -44 -45 -121 -85
-123 -54 -4 -115 -2 -151 5 -22 3 -67 11 -100 16 -33 6 -71 12 -85 15 -39 9
-136 16 -246 19 -91 2 -162 17 -165 35 -10 54 -5 84 26 167 19 51 37 108 40
126 2 18 7 44 9 58 3 14 7 43 11 65 3 22 7 47 10 55 2 8 6 32 10 54 3 21 8 42
11 47 3 5 7 23 8 41 2 18 7 44 10 58 3 14 8 39 11 55 3 17 10 56 15 87 11 56
15 91 26 193 3 28 7 133 10 235 6 228 9 248 37 260 29 12 34 12 98 0z"/>
</g>
</svg>
