<?xml version="1.0"?>
<svg xmlns:rdf="http://www.w3.org/1999/02/22-rdf-syntax-ns#" xmlns="http://www.w3.org/2000/svg" xmlns:cc="http://creativecommons.org/ns#" xmlns:dc="http://purl.org/dc/elements/1.1/" xmlns:svg="http://www.w3.org/2000/svg" id="svg2" viewBox="0 0 422.79 615.36" version="1.1">
  <title id="title3872">Rock Art Alban Colombia</title>
  <g id="g3848" transform="translate(-102.81 -32.55)">
    <g id="g3860">
      <path id="path3008" d="m176.75 32.562c-3.4437 0.19131-6.98 2.6183-7.25 6.4375-1.0035 14.197 0.64736 27.454 1.5 43 0.12005 2.1889-5.8033 3.0785-6.5 1-4.4896-13.395-3.2279-31.993-6-46.5-0.73629-3.8531-12.19-1.3618-11.5 2.5 2.1319 11.936 7.7073 31.222 10 43 0.54231 2.7859-7.6747 2.2156-8.5-0.5-3.4056-11.206-5.1553-30.12-7.5-41-1.2876-5.9748-12.927-11.537-10.5 2 2.2665 12.64 7.7137 30.073 7 36.5-10.088-1.7126-16.405-22.019-18-35-1.2487-10.164-18.698-16.041-16.5-3.5 3.2556 18.575 9.5336 35.915 23 47 7.46 6.1408 17.288 5.5992 28 7.5 0.89324 27.413-0.81438 62.596 7.5 85.5 4.1061 11.311 16.602 20.303 28.5 18.5 14.102-2.1372 45.5-7.5 45.5-7.5l11.5 9 21.5 10.5 41.5 3 11 12s11.537 68.975 12.5 82c0.96329 13.025-1.3707 16.32-10 15.5-69.703-6.6201-69.368-14.376-79.031-12.594-9.9743 1.84-26.263 3.3603-34.969 12.094-9.4513 9.4813-10.158 24.918-13 38-2.5246 11.62-2.2003 17.09-3.5 35.5-4.6761-1.079-15.604-3.1056-23.5-3-11.973 0.16006-25.666-1.3317-35.5 5.5-8.9463 6.2148-14.361 6.4237-19.5 37.5-1.9199 11.611 18.446 22.73 22.5 9.5 3.7028-12.085 6.2178-24.578 12-32 4.7546 8.7136 3.8966 24.996 3 42.5-0.35482 6.9275 20.746 7.3115 21 0.5 0.53772-14.4 3.8151-33.197 7.5-42 3.3405 9.277 5.5768 35.518 7.5 53 0.81508 7.4089 20.312 33.447 20 10-0.26156-19.627 0.89987-40.552 1-58.5 2.93-3.2315 12.543-5.8381 13-1.5 1.3846 13.138 1.5421 24.449 1.5 33-0.0365 7.4011 22.415 4.3896 22-3-0.55484-9.8908-1.9569-22.619-2-30.5-0.0138-2.5221 7.3669-3.5186 7.5-1 0.44224 8.3701-0.50769 15.584 1.5 23 1.3634 5.0362 2.9436 10.719 7 14 8.5233 6.895 12.784 4.4382 13-3 0.24764-8.5126-0.97993-13.488-2.5-20.5-1.141-5.2629-5.457-10.701-4.5-16 0.4403-2.4382 2.523-5.4411 5-5.5 4.9484-0.11775 10.578 5.5509 10.5 10.5-0.12235 7.7826 1.7024 17.447 2 24 0.18922 4.1657 10.997 20.67 11 1 0.002-11.809-2.6806-29.04-1.5-43.5 0.48408-5.9291-0.77375-13.362 3.5-17.5 3.6416-3.526 14.7-7.5601 15-2.5 2.887 48.726 7.173 43.939 8.5 77.5 0.23383 5.9138-0.52204 14.936-5.5 19.5-5.2523 4.8157-13.971 2.8292-21 4-17.437 2.9046-36.168 0.73505-52.5 7.5-14.628 6.0592-38 28.5-38 28.5s-6.9751 10.481-7.5 16.5c-1.86 21.328-2.923 65.288-1.5 97 0.28244 6.294 6.9001 12.437 13 15 7.5431 3.1695 17.206 2.2077 24.5-1.5 5.5927-2.843 11.304-7.1707 12-14.5 2.3919-25.179-3.531-56.999 4-84 1.2222-4.3819 3.1157-8.9601 6.5-12 5.2268-4.6949 12.689-6.276 19.5-8 19.993-5.0606 40.726-6.4473 61.406-7.5312l85.156 0.625c5.8481 2.4001 11.364 5.9264 14.938 10.906 4.2901 5.9778 3.8702 14.229 5 21.5 3.8511 24.782 6.7972 45.474 6 75-0.13502 5.001 6.0873 14.296 12.5 17.5 6.2636 3.1296 15.11 3.2857 21-0.5 5.4555-3.5062 8.0117-13.165 8.5-17.5 3.9588-35.14 7.0896-58.88 0-87-1.8048-7.1584-10.5-19.5-10.5-19.5s-25.001-26.459-40-36.5c-15.854-10.613-26.757-2.3679-37.5-9.5-8.5256-5.66-15.324-12.578-18.5-24.5-8.8099-33.068-5.1982-46.798-11-73-1.1731-5.298 3.001-8.3893 12-11 11.223-3.2559 23.966-5.8469 35-2 9.6975 3.3809 17.297 11.959 23 20.5 4.5078 6.7504 5.9534 13.411 8 23-7.2419 4.7101-15.916 3.7307-22.5 5-2.8628 0.55193-5.4605-2.4166-7.5-4.5-2.82-2.8806-2.3628-8.7619-6-10.5-8.8924-4.2495-16.309 1.3889-15.5 7 2.798 19.408 5.5364 34.386 7 50.5 1.2381 13.631 17.975 16.157 17.5 1-0.20154-6.4351-2.5125-14.402 2.5-17.5 1.7933-1.1083 4.594 0.42913 6 2 3.183 3.5562 2.4008 8.0618 3 14 2.0494 20.311 19.903 12.188 19.5-0.5-0.23282-7.3311-5.4178-24.06-3.5-26 3.3552-3.3941 10.691-0.43939 14 3 2.3651 2.4584 2.9645 17.276 3 26 0.0191 4.6933 1.4827 11.183-1.5 14-7.3004 6.8945 7.3825 16.172 13.5 8.5 4.5873-5.7532 3.5991-12.561 3.5-19-0.0971-6.3084-5.2069-16.067-4-18.5 0.77335-1.5592 3.5688-2.4897 5-1.5 2.3912 1.6536 2.3885 13.62 3.5 20.5 1.8311 11.334 14.59 8.0131 14.5-4-0.15065-20.155-11.743-33.508-7-37 4.9673-3.658 10.882 6.5031 14.5 11.5 3.958 5.4671 4.4679 11.631 7 19 2.9151 8.4837 10.748 1.2518 11-2.5 1.0495-15.652-6.6654-22.354-14-31-4.276-5.0408-10.129-9.2392-16.5-11-6.5943-1.8224-19.506 7.7689-20.5 1-2.7248-18.559-2.5534-34.336-4.5-52.5-1.1077-10.336-13.396-18.058-23.5-20.5-32.653-7.8905-84.61-5.7409-100.5-4 1.6104-13.759 2.1464-12.977 0.5-29.5s0.77762-56.694-8-68c-25.87-33.692-9.4852-7.7874 17-16.5 11.161-2.9835 33.5-12 33.5-12 25.624 3.8164 51.291 7.2902 77 10.5 0 0 17.003-15.832 18.5-26.5 3.6566-26.053 0.25763-47.764-2.5-70.5-0.96744-7.9763 3.9994-10.351 8.5-10.5 4.7032-0.15612 10.663-0.33722 14.5-3.5 4.949-4.0799 6.2142-11.34 8-17.5 2.0607-7.1085 1.7064-12.995 3-22 0.83626-5.8216-14.062-16.313-14.5 0-0.19717 7.3395-1.0325 12.664-1.5 19-0.89566 12.138-4.8372 11.416-7.5-0.5-1.5755-7.0504-3.8832-13.518-5.5-22.5-0.99817-5.5453-17.496-11.389-12 3.5 3.262 8.8371 5.3916 13.853 7 22 2.016 10.211-10.981 11.313-11.5-1-0.31888-7.5583-1.6234-18.69-2.5-27.5-0.86124-8.6557-14.252-5.1628-14-0.5 0.4607 8.5234 2.568 17.814 3 26.5 0.33055 6.6461 1.3892 10.215-6.75 11.656-4.29 0.744-7.92-2.776-9.26-11.67-0.9829-6.5033-2.4832-14.495-3.5-25-1.4211-14.681-16.484-5.7402-15.5 3 0.99548 8.8396 3.3106 14.288 4.5 24.5 1.454 12.484-6.7417 7.7437-9 1-3.7496-11.197-7.4968-19.662-8-29.5-0.67229-13.145-14.667-10.646-14 1.5 0.66735 12.158 2.8655 19.784 6.5 29 7.0261 17.816 20.996 20.759 31 21 5.4579 0.13137 11.005 3.9353 14 8.5 6.7365 10.268 4.4298 26.344 5 36.5 0.46263 8.2398 1.961 21.676-15 23-17.257 1.3468-21.524-14.094-24.5-25.5-4.4055-16.882-0.4701-42.478-33-63.5-20.92-13.52-47.111-19.002-72-20-24.593-0.98662-50.947 2.1147-72.5 14-13.01 7.1741-25.695 18.442-30.5 32.5-4.5486 13.307 3.0515 28.033 4 42 0.3774 5.5575-4.9305 12.911-10.5 13-6.3806 0.10224-12.167-8.1273-12.5-14.5-1.1162-21.364-3.5462-40.268-5.5-58 3.7575-4.7514 12.885 0.74564 18-2.5 3.8642-2.4521 6.2406-7.1002 7.5-11.5 1.6817-5.8752-5.8514-22.997-8-30.5-2.1156-7.3879-12.726-4.267-8.5 6.5 2.9255 7.4528 3.7304 9.9381 2 14.5-1.6349 4.3101-10.21 14.495-10.5 9-0.57131-10.83 2.8918-29.177 3-41.5 0.0446-5.0844-3.3063-7.1288-6.75-6.9375zm126.03 45.813c12.34 0.03636 24.721 2.2554 36.719 5.125 12.256 2.9313 25.351 5.5301 35.5 13 11.49 8.4572 20.627 20.783 26 34 2.994 7.3649 0.97871 29.33 5.5 43 2.5989 7.8578 14.356 9.025 22.5 10.5 8.3896 1.5195 16.071-0.0316 25.5-2 6.2125-1.297 7.6856-11.156 7.5-17.5-0.44233-15.119-1.1074-26.029-2-43-0.37451-7.1207 10.143-0.62252 10.5 3 1.4474 14.694 2.4813 27.224 3 45 0.63176 21.651-5.0099 15.133-10.5 20.5-4.1044 4.0123-9.8179 6.6886-15.5 7.5-14.891 2.1266-36.908-3.5522-44.5-7.5-4.2984-2.2352-6.8666-3.657-6.5-13 0.41793-10.65 0.14503-20.455-3-30-5.0986-15.474-12.068-32.089-25-42-16.63-12.742-39.57-16.067-60.5-17-20.835-0.9285-44.155-0.07992-61.5 11.5-11.918 7.957-24.524 21.706-23.5 36 0.93542 13.054 4.2481 21.939 7 33 2.2509 9.0473-0.6841 9.9562-4.5 11.5-11.456 4.6348-22.52 4.8766-34.5 7.5-8.5565 1.8737-14.457-3.0785-16-9-5.5663-21.364-8.532-50.67-9-69.5-0.15331-6.1679 4.8113-4.6643 5 0.5 0.78265 21.42 3.6702 35.173 5.5 50 0.94105 7.6251 10.17 12.697 17.5 15 4.7938 1.5065 10.478 0.69158 15-1.5 6.0459-2.9302 14.711-2.8915 14-14.5-0.18736-3.0582-5.7547-14.742-6-22.5-0.24168-7.6447 0.72532-15.848 4.5-22.5 5.8815-10.365 15.914-18.525 26.5-24 15.013-7.7647 32.619-10.154 49.5-11 1.7602-0.08824 3.5184-0.13019 5.2812-0.125zm0.78125 22.906c2.3347 0.007 4.6412 0.0797 6.9375 0.21875 17.414 1.0547 35.661 6.3766 49.5 17 8.7634 6.7274 15.349 16.911 18.5 27.5 3.4706 11.662 4.8275 25.56-0.5 36.5-3.3733 6.9269-10.367 11.164-18 14.5 1.1418-6.3351 8.7055-17.15 9.5-26.5 0.73083-8.6003-0.16312-18.037-4.5-25.5-11.851-20.392-18.556-22.758-31.5-28.5-11.463-5.0846-46.766-4.8741-56.5-2-11.323 3.3432-23.826 12.001-26.5 23.5-2.6922 11.576 1.4994 20.642 13.5 33 5.5794 5.7454 5.7071 15.439 5 23.5-3.2559-1.1607-5.8443-1.5442-8-3.5-4.8077-4.3618-5.7925-11.671-9.5-17-4.2538-6.1137-12.437-9.8435-14.5-17-2.2396-7.7682 0.27905-16.585 3.5-24 3.4014-7.8307 8.7347-15.516 16-20 13.704-8.4573 30.72-11.768 47.062-11.719zm1.0312 21.906c6.4126 0.0532 12.884 0.45634 19.406 0.8125 9.0082 0.4919 21.181 7.606 24.5 11.5 7.2919 8.555 8.7298 21.262 9 32.5 0.2546 10.59-5.7384 28.455-7 31-2.0569 4.1489-7.3874 6.5899-12 7-7.2477 0.64437-13.766-4.7438-20.5-7.5-8.3204-3.4054-8.0572 6.2445-28.5-1.5-4.6757-1.7714-9.6407-4.5916-12-9-2.8355-5.2982 1.0044-12.335-1-18-2.9469-8.329-13.297-12.944-15.5-21.5-1.3814-5.3653-0.63588-11.627 2-16.5 2.5007-4.6232 14.705-6.183 22.5-7.5 6.3275-1.069 12.681-1.3657 19.094-1.3125zm-50.781 199.75c0.6855-0.0309 1.4166-0.01 2.1875 0.0625 23.206 2.1797 43.562 8.6003 67 9 5.8325 0.0995 10.078 8.1819 10.5 14 3.4645 47.799 10.65 93.783 12.5 137 0.35217 8.2269-6.2772 19.563-14.5 20-23.223 1.2331-42.12 0.36763-62.5 5-9.0546 2.0581-26 10-26 10s-14.249 9.1402-14.5 27.5c-0.35389 25.915 0.15255 49.319-0.5 75.5-0.47379 19.008-19.697 14.506-19.5 1 0.34737-23.859 0.40306-48.998 2-74.5 0.38215-6.1027 6-21.5 6-21.5s10.845-9.8088 18-15c8.5669-6.2157 18.378-10.906 28.5-14 17.537-5.361 34.241-2.6228 54.5-7.5 6.8383-1.6463 12.7-9.9692 12.5-17-1.0774-37.852-4.5242-76.623-9.5-114.5-0.86751-6.6037-3.98-15.64-10.5-17-18.445-3.8479-40.783-3.3403-56-5-11.075-1.2079-10.47-12.598-0.1875-13.062zm-25.938 13.031c0.2102 0.00069 0.41455 0.0102 0.625 0.0312 5.1915 0.51973 8.6222 5.2839 7 14-0.87379 4.6949-6.3838 7.7644-7 12.5-0.77721 5.9728 1.4517 10.215 4.5 17.5 4.3615 10.423 17.379 8.4362 16-1-1.0653-7.2902 0.0499-17.796 4.5-25 2.7954-4.525 9.0218-10.61 15-10 11.331 1.1564 20.86-0.12359 33.5 2.5 5.5819 1.1586 7.5193 11.664 4.5 16.5-3.774 6.0444-14.319 1.521-21 4-5.9501 2.2078-13.323 4.0057-16.5 9.5-1.8352 3.1743 1.5321 7.6688 0 11-1.9262 4.188-6.0375 7.8442-10.5 9-7.2461 1.8767-11.181-2.9334-22-4.5-5.5504-0.80367-6.684 4.6421-10 7-3.0159 2.1445-0.82771 7.9569-9 6.5-8.4286-1.5026-8.6142-5.6223-7.5-9.5 4.1034-14.28 8.2443-28.362 6-44-0.93145-6.49 5.3588-16.053 11.875-16.031zm162.56 0.40625c3.2264-0.0218 6.424 0.1551 9.5625 0.625 13.929 2.0854 28.115 6.7082 39.5 15 6.9011 5.0263 12.462 12.23 16 20 3.8611 8.4792 4.1902 16.819 5 27.5 1.3161 17.36-6.526 13.338-7.5 1.5-0.48734-5.9233-1.643-14.929-4-22-1.7678-5.3033-3.6183-10.977-7.5-15-5.8003-6.0112-13.811-10.353-22-12-17.994-3.6199-35.246-2.0066-51 0.5-5.8611 0.93255-11.682 8.1045-11 14 3.614 31.22 5.4906 57.283 10.5 82.5 2.2278 11.214 8.8277 22.049 17.5 29.5 6.4088 5.506 15.181 8.0209 23.5 9.5 5.0895 0.90492 10.438-1.5496 15.5-0.5 6.4971 1.3473 12.801 4.3774 18 8.5 11.34 8.9918 20.484 21.078 27 34 2.0206 4.007 2.8683 8.557 3.5 13 3.6137 25.416 2.3128 54.07 1.5 77-0.63243 17.842-15.51 14.344-16 1-1.0872-29.625 3.8111-62.443-4.5-92-1.6959-6.0311-4.5519-12.088-9-16.5-5.7704-5.7234-13.806-8.8805-21.5-11.5-17.275-5.8814-38.545 0.70315-54-9-5.8744-3.6882-11.667-10.072-12-17-1.946-40.53-7.447-80.66-8-125.5-0.0658-5.3355 7.2118-9.2882 12.5-10 8.8755-1.1947 18.758-3.0595 28.438-3.125z"/>
      <path id="path3014" d="m284 136c-2.6942-2.9082-7.207-4.4547-9.5-4.5-3.8866-0.0767-9.1726 4.5197-6 10 1.6082 2.7781 6.6589 4.6393 11.5 4.5 5.7077-0.16421 6.4398-7.3664 4-10z"/>
      <path id="path3016" d="m340.71 141c-1.5309-3.0991-2.4396-4.851-4.7071-6-1.8976-0.96157-4.2549-0.0846-6.3787-0.20711-4.4447-0.25629-5.983 3.8515-3.1213 7.7071 1.7769 2.394 5.0187 4.0234 8 4 7.8626-0.0618 7.3554-3.1754 6.2071-5.5z"/>
      <path id="path3018" d="m322.5 171c-10.28-7.4454-12.626-5.811-17.5-2.5-3.5446 2.4077-11.296 4.3824-3 12.5 3.5279 3.4518 9.6058 3.6389 14.5 3 3.6954-0.48243 8.8215-1.4645 10-5 0.94281-2.8284-1.5853-6.2512-4-8z"/>
      <path id="path3020" d="m185.41 206.03c-1.4763 0.0172-2.9388 0.21177-4.375 0.6875-5.5397 1.835-11.045 6.4503-12.75 12.031-3.4592 11.32 4.6404 23.244 7.7812 34.656 3.6193 13.151 7.55 30.475 12.75 38.875 3.7506 6.0589-1.957 12.607 17.656 12.031 14.494-0.42539 27.345 1.85 41.031 2.125 20.503 0.41201 42.827 7.7592 61.5-0.71875 5.4717-2.4843 10.35-7.6683 12.031-13.438 4.4778-15.364 0.0203-33.402-7.7812-47.375-5.783-10.358-16.425-17.698-26.875-23.312-15.516-8.3361-33.382-12.387-50.906-14.156-10.108-1.0208-20.249 2.366-30.406 2.125-6.5543-0.15554-13.259-3.6058-19.656-3.5312zm21.219 14.125c0.18578-0.012 0.37174-0.0169 0.5625 0 7.8152 0.69167 25.17-5.0933 25.781 13.75 0.24481 7.5422 3.9894 15.546 5.6562 22.906 1.5833 6.9911 1.7362 14.566-0.34375 29.812-0.9547 6.9984-4.9359 8.7129-19.094 9.1875-24.15 0.80953-17.817-16.956-22.562-25-6.9308-11.748-5.5297-21.252-9.25-34.375-3.8435-13.557 1.034-12.283 11.312-12.75 2.8697-0.13048 5.1508-3.3505 7.9375-3.5312zm53 8.5938c2.4453-0.14825 9.7064-1.4871 13.062 1.1562 5.5704 4.3874 10.23 6.4091 15.812 10.781 5.4576 4.2744 9.3911 10.559 12.031 16.969 2.7302 6.6283 2.5237 10.179 4.0312 17.188 1.617 7.5175 9.6562 21.259-11.281 20.875-8.3019-0.15221-9.4472-0.7511-21.25-0.84375-15.504-0.1217-14.191-2.11-14.594-14.594-0.39398-12.199 1.3749-22.557-1.4688-40.312-1.259-7.8611 0.51226-11.028 3.6562-11.219z"/>
      <path id="path3026" d="m385.59 213.84c-6.8798-0.0154-13.98 3.6456-20.719 5.625-12.04 3.5365-14.449 6.3834-14.156 12.719 0.63761 13.788 3.045 20.214 3.5312 30.406 0.55055 11.539-4.3591 23.703-0.6875 34.656 3.1474 9.3888 5.4579 18.537 18.375 23.312 12.891 4.7662 27.282 3.41 41 4.25 12.236 0.74922 21.226 3.3107 36.781 0.71875 5.7751-0.96228 10.289-0.36346 13.438-11.312 6.6191-23.018 7.4257-35.732 13.062-52.344 3.0642-9.4074 2.7641-17.035 5.3438-29.469 1.1893-5.7327-2.9602-10.27-8.8125-10.438-44.98-1.2887-50.394-1.5036-82.438-7.4688-1.5934-0.29663-3.1311-0.6527-4.7188-0.65625zm-5.0312 14.688c12.497-0.056 15.914-4.89 18.062 9.3125 1.7721 11.713 0.66722 21.25 0.1875 31.812-0.45134 9.3284-1.4186 18.956-4.9688 27.594-1.7397 4.233-3.4846 9.6539-7.75 11.312-2.9309 1.1397-6.1425-1.4727-9.2188-2.125-14.555-3.0864-10.52-6.3112-9.75-15.062 2.1363-16.423 2.1287-34.068 0.8125-48.438-1.0324-13.329 2.5788-14.042 12.625-14.406zm60.406 5.7188c4.8066-0.0447 9.7181 0.19637 16.531 2.1875 5.2231 1.5264 7.8672 1.7002 4.9375 15.562-3.6202 17.129-6.9978 39.257-12.719 50.188-2.2878 4.0811 0.38558 10.661-10.594 9.1875-10.321-1.3851-13.738-3.0161-25.469-2.8125-7.2166 0.12527-8.9278-2.3996-5.5312-9.625 2.2866-4.8642 2.6734-11.265 3.75-16.531 2.7641-13.521 5.2894-24.113 5.1562-42.031-0.10168-13.687-0.12806-8.5081 23.938-6.125z"/>
    </g>
  </g>
  <metadata>
    <rdf:RDF>
      <cc:Work>
        <dc:format>image/svg+xml</dc:format>
        <dc:type rdf:resource="http://purl.org/dc/dcmitype/StillImage"/>
        <cc:license rdf:resource="http://creativecommons.org/licenses/publicdomain/"/>
        <dc:publisher>
          <cc:Agent rdf:about="http://openclipart.org/">
            <dc:title>Openclipart</dc:title>
          </cc:Agent>
        </dc:publisher>
        <dc:title>Rock Art Alban Person 1</dc:title>
        <dc:date>2011-03-04T06:27:05</dc:date>
        <dc:description>Alban, Colombia petroglyph manually traced from public domain image at http://en.wikipedia.org/wiki/File:Alb.jpg</dc:description>
        <dc:source>http://openclipart.org/detail/125305/rock-art-alban-person-1-by-serioustux</dc:source>
        <dc:creator>
          <cc:Agent>
            <dc:title>SeriousTux</dc:title>
          </cc:Agent>
        </dc:creator>
        <dc:subject>
          <rdf:Bag>
            <rdf:li>Alban</rdf:li>
            <rdf:li>Colombia</rdf:li>
            <rdf:li>Petroglyph</rdf:li>
            <rdf:li>ancient</rdf:li>
            <rdf:li>b&amp;w</rdf:li>
            <rdf:li>black and white</rdf:li>
            <rdf:li>clip art</rdf:li>
            <rdf:li>clipart</rdf:li>
            <rdf:li>human</rdf:li>
            <rdf:li>person</rdf:li>
            <rdf:li>primitive</rdf:li>
            <rdf:li>rock art</rdf:li>
            <rdf:li>tribal</rdf:li>
          </rdf:Bag>
        </dc:subject>
      </cc:Work>
      <cc:License rdf:about="http://creativecommons.org/licenses/publicdomain/">
        <cc:permits rdf:resource="http://creativecommons.org/ns#Reproduction"/>
        <cc:permits rdf:resource="http://creativecommons.org/ns#Distribution"/>
        <cc:permits rdf:resource="http://creativecommons.org/ns#DerivativeWorks"/>
      </cc:License>
    </rdf:RDF>
  </metadata>
</svg>
